#!OML:ASF F:\VICON\USERDATA\INSTALL\rory3\rory3.ASF
:FULLY-SPECIFIED
:DEGREES
73
root 0.595522449443556 17.347320917205025 32.305892967411445 2.1375936768637676 5.007983100135509 1.535980234494195
lfemur -8.988016338407887 -0.30388126793275666 -25.51810702588183
ltibia 36.46724985148873
lfoot 3.403508955331562 -12.710670350146469
ltoes -11.017901241006058
rfemur -27.42077939415522 2.1035219583219282 24.53259877764049
rtibia 71.5919297070131
rfoot 8.938327053407601 -4.266740205775177
rtoes -4.849936369027546
lowerback 14.320354748184386 -0.5741997660856619 -1.2373244982921312
upperback -0.48296549608033784 0.5016186688846211 -0.01800142536153193
thorax -9.451801090875245 0.2946428596425995 1.0799279503803205
lowerneck -20.395889603134307 -4.569682811448025 -1.9525244706161742
upperneck 15.613537062702386 -6.443829421144007 2.940496392476251
head 8.253500426978183 -3.0132473282618615 0.5734285865104539
lclavicle -1.9521778548038573e-15 1.1013510665873355e-15
lhumerus -45.01042149817009 -8.876568369188378 96.8802127144662
lradius 112.69762635973922
lwrist 46.52114840381566
lhand -17.68985180472042 6.323504030055435
lfingers 7.125020000000001
lthumb 7.947497993846019 36.056157015266066
rclavicle -1.9521588892316494e-15 1.1013659669828002e-15
rhumerus -52.0067661182004 13.960970168310523 -104.42669947585526
rradius 109.13784951344995
rwrist -15.91142912454574
rhand -24.242001289061317 -129.69180013839588
rfingers 7.125020000000001
rthumb 3.1215940726340428 13.585892736152834
74
root 0.6191588991844101 17.46014472672994 33.35507293132666 2.477413092556583 4.6743594741285355 1.4411971720080308
lfemur -7.765777515863613 -0.061810118116907786 -25.102431599609922
ltibia 33.012804094589264
lfoot 3.7508059097833604 -13.122827792731783
ltoes -11.483399211267015
rfemur -33.0220542722364 1.5176717399051494 23.26119366636738
rtibia 66.7266120358164
rfoot 9.17201141590633 -4.000493830582471
rtoes -4.744249674247896
lowerback 14.29888125530319 -0.6858854543291393 -1.318980268956171
upperback -0.51270643877442 0.24093568438834378 -0.01445121972866692
thorax -9.423265174089583 0.1986796311665836 1.275714216052663
lowerneck -20.33402850589969 -4.378979185580496 -1.9596775166901763
upperneck 15.705136561186176 -6.356510275257269 2.889160073500187
head 8.272922805841633 -2.963651531747314 0.5674916907503036
lclavicle -1.9521778548038573e-15 1.1013510665873355e-15
lhumerus -45.11275512313286 -9.179238547295983 96.71303525610907
lradius 113.27451547899645
lwrist 46.68891205972327
lhand -17.699647567558245 6.3902991138998
lfingers 7.125020000000001
lthumb 8.036421487426153 36.086693650594384
rclavicle -1.9521588892316494e-15 1.1013659669828002e-15
rhumerus -53.25832901422538 13.66930110744751 -104.33701845170769
rradius 109.34655977725403
rwrist -15.527814596609932
rhand -24.52289778358373 -135.31678275772953
rfingers 7.125020000000001
rthumb 2.4775515982299283 12.987515546173576
75
root 0.642377828427287 17.58908920768092 33.797529497818566 2.7081445293262054 3.8767970074901967 1.2397299289917152
lfemur -8.710067512811095 -0.07338677501638774 -25.203629387632134
ltibia 29.72443965635218
lfoot 3.278226222324297 -12.923259501961981
ltoes -11.422946728042017
rfemur -34.174491411984114 1.5723107388931756 23.691396740839263
rtibia 61.70576416118707
rfoot 9.25196654568466 -3.802710826385982
rtoes -3.921522625512737
lowerback 14.188907482419063 -0.8229810081720785 -1.394769626240112
upperback -0.5652135867624395 -0.06632189209259032 0.018695703384418838
thorax -9.467184329123487 0.062438601099014834 1.354543489762571
lowerneck -20.462246956939012 -4.401953331791788 -2.0275552670382972
upperneck 15.775866620146283 -6.279387560268362 2.8384314777602797
head 8.297001215720972 -2.894955222168438 0.5694539647930213
lclavicle -1.9521778548038573e-15 1.1013510665873355e-15
lhumerus -43.88225144785011 -9.02015181175577 96.84307812126985
lradius 113.54332885578724
lwrist 46.95237177604271
lhand -17.717590542835936 6.375566923565227
lfingers 7.125020000000001
lthumb 8.057791952703967 36.05246448104343
rclavicle -1.9521588892316494e-15 1.1013659669828002e-15
rhumerus -54.302824337492666 13.558034662657075 -104.15737713855202
rradius 109.62034899063485
rwrist -15.386654153355794
rhand -24.289223431698044 -134.64314477167278
rfingers 7.125020000000001
rthumb 2.672482747670389 13.58482832949684
76
root 0.6727077412128524 17.7479466522463 34.729400588241624 3.0178184547736873 3.0381531494777563 0.9732612107488938
lfemur -7.706985432882581 0.25860060230764176 -24.710392136506822
ltibia 27.776992862029644
lfoot 3.0742847621378027 -12.695694088680254
ltoes -11.020398682984784
rfemur -33.49131403365564 1.9592505788650507 24.348979349795012
rtibia 57.04534160796328
rfoot 8.480953986977614 -3.6306330257514974
rtoes -3.2602403542361404
lowerback 13.985398425794212 -0.9803149322462716 -1.4916430122672089
upperback -0.6230263791624776 -0.32468602677633296 0.12982860262331797
thorax -9.452679928882818 -0.05242823576158934 1.4748501497922488
lowerneck -20.37109837184877 -4.256645635643195 -2.0392895994566542
upperneck 15.819101854772093 -6.2315747719031735 2.8041478989506805
head 8.31978154451103 -2.8531560077165934 0.5660199700374613
lclavicle -1.9521778548038573e-15 1.1013510665873355e-15
lhumerus -43.044778087440555 -9.057280510568887 96.90598791131286
lradius 114.07756647851362
lwrist 46.733556635986105
lhand -17.76394429990426 6.4280929605902335
lfingers 7.125020000000001
lthumb 8.196471300769195 36.12471005851405
rclavicle -1.9521588892316494e-15 1.1013659669828002e-15
rhumerus -55.13798852446247 13.560337130029842 -103.909537971689
rradius 109.92610547544155
rwrist -15.36808116822583
rhand -24.456235910989758 -142.07104212941888
rfingers 7.125020000000001
rthumb 2.3709576229602822 13.604390142591356
